<svg width="137" height="176" viewBox="0 0 137 176" fill="none" xmlns="http://www.w3.org/2000/svg">
<path d="M7.92281 14.14C3.43481 19.6463 3.23081 30.6591 2.41481 38.5448C0.374811 56.8313 -0.169189 75.2539 0.646811 93.6085C1.46281 113.323 -1.86919 175.048 28.7988 176C39.2708 176.34 47.6348 165.871 48.6548 155.402C49.6068 144.933 45.1868 134.804 40.2908 125.491C31.5868 108.768 24.9228 95.9878 32.8788 77.7692C35.6668 71.3791 37.7748 64.717 39.1348 57.919C40.8348 49.2856 41.3788 40.2442 38.9308 31.8147C36.4148 23.3852 30.5668 15.6355 22.4068 12.3725C15.1308 9.51733 10.7108 10.8089 7.92281 14.14Z" fill="#17293A"/>
<path d="M62.7988 12.1683C59.6028 8.97325 57.0868 4.4186 62.3228 1.15556C72.3188 -1.56363 82.7908 0.883643 92.2428 4.89446C98.2268 7.47769 104.143 10.8087 108.291 15.8392C113.799 22.4333 115.907 31.4746 114.955 39.9721C113.459 53.3641 105.775 64.5128 95.5068 72.8064C88.5028 78.4487 80.6828 83.4113 72.3188 86.9462C67.2868 89.0536 67.7628 96.3274 73.0668 97.6191C76.1268 98.3668 79.3228 98.8427 82.4508 99.1146C101.899 100.95 126.923 102.582 133.655 126.171C134.471 129.026 134.879 132.017 135.015 135.008C135.423 145.545 135.763 156.082 136.171 166.687C136.443 173.417 129.575 173.145 124.543 173.689C120.055 174.096 115.567 173.961 111.079 173.757C105.163 173.485 98.1588 173.281 93.1268 169.678C83.6748 163.016 88.7748 145.681 83.6068 135.484C78.3028 125.083 69.1228 116.585 58.2428 112.303C52.1228 109.923 45.4588 108.768 40.5628 103.873C38.8628 102.174 37.5708 99.9984 37.1628 97.5511C36.0748 91.093 40.9708 87.3541 45.4588 84.227C52.8708 79.0605 60.2828 73.8941 67.7628 68.7276C73.2708 64.9207 78.7788 61.0459 82.9948 55.8794C87.2108 50.7129 89.9988 43.9829 88.9788 37.3889C87.4148 27.2598 70.9588 19.2382 64.0228 13.256C63.6828 12.9841 63.2068 12.5762 62.7988 12.1683Z" fill="#17293A"/>
</svg>
